# xmcd
#
# Track frame offsets:
#	150
#	11494
#	22778
#	40478
#	53744
#	71631
#	86706
#	97506
#	115430
#
# Disc length: 1882 seconds
#
# Revision: 0
# Processed by: cddbd v1.5.2PL0 Copyright (c) Steve Scherf et al.
# Submitted via: dBpowerAMP V4.0
#
DISCID=66075809
DTITLE=West Nile Ramblers - Honkabilly Western Garage
DYEAR=2009
DGENRE=Bluegrass
TTITLE0=An old Watermill by a Waterfall
TTITLE1=Right or Wrong
TTITLE2=Uke Swing
TTITLE3=In the Shade of the old Apple Tree
TTITLE4=Rosie Night
TTITLE5=Silver Dew on the Blue Grass Tonight
TTITLE6=Drinking Song
TTITLE7=The Whiskey Ain't Workin'
TTITLE8=Double Wide
EXTD=
EXTT0=
EXTT1=
EXTT2=
EXTT3=
EXTT4=
EXTT5=
EXTT6=
EXTT7=
EXTT8=
PLAYORDER=
